<svg width="26" height="26" viewBox="0 0 26 26" fill="none" xmlns="http://www.w3.org/2000/svg">
<path d="M14.0333 21.7854C14.0092 22.6165 13.3404 23.235 12.5813 23.2118C11.8221 23.1885 11.1904 22.5302 11.2145 21.6991C11.2385 20.8681 11.9073 20.2496 12.6664 20.2728C13.4256 20.2961 14.0573 20.9544 14.0333 21.7854Z" stroke="#ED8F03" stroke-width="1.5"/>
<path d="M7.80239 7.12735C8.15001 4.73087 10.2049 2.95339 12.6264 2.95448C15.0477 2.95556 17.1009 4.73445 17.4468 7.13089L17.9152 10.3757C18.1984 12.6193 19.0017 14.2139 20.2451 15.9262C20.7774 16.6593 20.2573 17.5944 19.4717 17.5941L5.74495 17.589C4.95761 17.5887 4.4538 16.6635 4.98314 15.9488C6.2603 14.2244 7.10765 12.6228 7.33324 10.3616L7.80239 7.12735Z" stroke="#ED8F03" stroke-width="1.5"/>
</svg>
