<svg width="27" height="27" viewBox="0 0 27 27" fill="none" xmlns="http://www.w3.org/2000/svg">
<path d="M13.2012 19.8V16.5" stroke="#ABB0BF" stroke-width="1.5" stroke-linecap="round" stroke-linejoin="round"/>
<path d="M11.0762 3.10194L3.45321 9.20694C3.00676 9.60353 2.66264 10.102 2.45006 10.6601C2.23749 11.2181 2.16276 11.8192 2.23221 12.4123L3.69521 21.1683C3.84954 21.9489 4.26454 22.6538 4.87214 23.1674C5.47975 23.6811 6.24389 23.973 7.03921 23.9953H19.3559C20.1502 23.9693 20.9124 23.6761 21.5192 23.163C22.1261 22.65 22.5421 21.9472 22.6999 21.1683L24.1629 12.4123C24.2265 11.8203 24.149 11.2216 23.9368 10.6652C23.7246 10.1089 23.3837 9.61064 22.9419 9.21134L15.3222 3.11294C14.7103 2.6534 13.9663 2.40403 13.201 2.40205C12.4358 2.40007 11.6905 2.64558 11.0762 3.10194V3.10194Z" stroke="#ABB0BF" stroke-width="1.5" stroke-linecap="round" stroke-linejoin="round"/>
</svg>
