<svg width="20" height="20" viewBox="0 0 20 20" fill="none" xmlns="http://www.w3.org/2000/svg">
<g clip-path="url(#clip0_1_4307)">
<path d="M10 5.36694V8.14194" stroke="black" stroke-width="1.5" stroke-linecap="round"/>
<path d="M10.0177 1.66699C9.28876 1.66673 8.56694 1.81011 7.89347 2.08893C7.21999 2.36775 6.60806 2.77655 6.09264 3.29196C5.57723 3.80738 5.16843 4.41931 4.88961 5.09279C4.61079 5.76626 4.46741 6.48808 4.46767 7.21699V8.96699C4.44118 9.63228 4.26152 10.2825 3.94267 10.867L2.88667 12.634C2.72873 12.8677 2.62871 13.1357 2.59487 13.4157C2.56102 13.6958 2.59434 13.9799 2.69206 14.2445C2.78978 14.5091 2.94909 14.7467 3.15682 14.9375C3.36455 15.1284 3.61473 15.267 3.88667 15.342C7.87107 16.667 12.1773 16.667 16.1617 15.342C16.4245 15.2543 16.6643 15.1086 16.8634 14.9158C17.0624 14.723 17.2156 14.4879 17.3115 14.228C17.4075 13.968 17.4439 13.6898 17.418 13.4139C17.392 13.138 17.3044 12.8715 17.1617 12.634L16.1007 10.867C15.7829 10.2821 15.6033 9.63211 15.5757 8.96699V7.21699C15.5673 5.74625 14.9787 4.33827 13.938 3.29903C12.8973 2.25979 11.4884 1.67329 10.0177 1.66699Z" stroke="black" stroke-width="1.5" stroke-linecap="round"/>
<path d="M12.7746 15.683C12.772 16.4181 12.4788 17.1225 11.9589 17.6423C11.4391 18.1621 10.7348 18.4553 9.99961 18.458C9.2646 18.4552 8.56061 18.1614 8.04161 17.641C7.52114 17.122 7.22739 16.418 7.22461 15.683" stroke="black" stroke-width="1.5"/>
</g>
<defs>
<clipPath id="clip0_1_4307">
<rect width="20" height="20" fill="white"/>
</clipPath>
</defs>
</svg>
