<svg width="26" height="24" viewBox="0 0 26 24" fill="none" xmlns="http://www.w3.org/2000/svg">
<path d="M24.1149 10.275H24.1153C24.5473 10.2767 24.961 10.4494 25.266 10.7554C25.571 11.0613 25.7423 11.4757 25.7426 11.9077V11.9077V22.1706V22.1709C25.742 22.3837 25.6993 22.5942 25.6169 22.7904C25.5346 22.9866 25.4143 23.1646 25.263 23.3141C25.1116 23.4637 24.9321 23.5818 24.7349 23.6617C24.5379 23.7415 24.327 23.7817 24.1144 23.7797H17.157H17.1566V23.6797C16.9575 23.6814 16.7601 23.6436 16.5758 23.5684C16.3914 23.4933 16.2238 23.3823 16.0826 23.242C15.9415 23.1016 15.8295 22.9347 15.7533 22.7508C15.6771 22.5669 15.6382 22.3697 15.6387 22.1706L24.1149 10.275ZM24.1149 10.275H22.9238C22.8386 10.0235 22.6807 9.80225 22.4693 9.63974C22.2375 9.46159 21.9541 9.36374 21.6618 9.36098H21.6608M24.1149 10.275L21.6608 9.36098M21.6608 9.36098H20.4105V6.16013C20.4123 6.08108 20.393 6.00296 20.3548 5.93372C20.3164 5.8641 20.2601 5.80595 20.1918 5.76523L20.1906 5.76455M21.6608 9.36098L20.1906 5.76455M20.1906 5.76455L10.6655 0.262944C10.6655 0.262923 10.6654 0.262903 10.6654 0.262883C10.5965 0.222847 10.5182 0.201758 10.4385 0.201758C10.3588 0.201758 10.2805 0.22284 10.2116 0.262863M20.1906 5.76455L10.2116 0.262863M10.2116 0.262863C10.2115 0.26289 10.2115 0.262917 10.2114 0.262944L0.683357 5.76454L0.683211 5.76463C0.614089 5.80469 0.55675 5.86227 0.516974 5.93156C0.477225 6.0008 0.456417 6.07929 0.456642 6.15913M10.2116 0.262863L0.456642 6.15913M0.456642 6.15913V6.15898H0.556641L0.456643 6.1593C0.456643 6.15924 0.456643 6.15918 0.456642 6.15913ZM0.456642 6.15913V17.1625C0.456644 17.2425 0.477691 17.321 0.517666 17.3902C0.557643 17.4595 0.615139 17.517 0.684376 17.557L10.2137 23.0587C10.2829 23.0987 10.3614 23.1197 10.4414 23.1197L0.456642 6.15913ZM19.4996 6.94742L10.9145 11.9228V21.8752L15.5387 19.2012V11.9078V11.9077H15.6387L19.4996 6.94742ZM19.4996 6.94742V9.36653C19.2467 9.38968 19.0047 9.48404 18.8021 9.63972C18.5907 9.80225 18.4328 10.0235 18.3476 10.275L19.4996 6.94742ZM15.5387 20.2529L15.5387 22.1704L10.4414 23.1197C10.5225 23.1198 10.6023 23.099 10.6731 23.0594L10.6742 23.0587L15.5387 20.2529ZM24.1167 22.8688V22.8688H24.1149L17.1566 22.8688L17.1549 22.8688C17.0625 22.8704 16.9707 22.8534 16.8849 22.819C16.7992 22.7846 16.7211 22.7334 16.6554 22.6684C16.5897 22.6034 16.5377 22.526 16.5023 22.4406C16.467 22.3552 16.4491 22.2636 16.4496 22.1712V22.1706L16.4496 11.9077L16.4496 11.9067C16.4487 11.8129 16.4662 11.7198 16.5013 11.6328C16.5364 11.5458 16.5883 11.4665 16.654 11.3996C16.7198 11.3326 16.7981 11.2793 16.8844 11.2426C16.9707 11.2061 17.0633 11.1868 17.1569 11.186H18.3634C18.4523 11.4286 18.6109 11.6403 18.82 11.794C19.0492 11.9623 19.3267 12.0519 19.6111 12.0493H21.6604C21.9447 12.0519 22.2222 11.9623 22.4514 11.794C22.6606 11.6403 22.8192 11.4286 22.908 11.186H24.1145C24.3051 11.1873 24.4874 11.2638 24.6217 11.399C24.7561 11.5342 24.8316 11.7171 24.8316 11.9077L24.8316 22.1702C24.8316 22.1703 24.8316 22.1704 24.8316 22.1705C24.8312 22.2634 24.8123 22.3553 24.776 22.4408C24.7397 22.5264 24.6868 22.604 24.6203 22.669C24.5538 22.734 24.475 22.7851 24.3886 22.8194C24.3021 22.8537 24.2097 22.8705 24.1167 22.8688ZM21.6735 10.2719C21.7838 10.2719 21.8896 10.3157 21.9676 10.3938C22.0456 10.4718 22.0895 10.5776 22.0895 10.6879V10.7223C22.0895 10.8327 22.0456 10.9385 21.9676 11.0165C21.8896 11.0945 21.7838 11.1383 21.6735 11.1383H19.6078C19.4975 11.1383 19.3916 11.0945 19.3136 11.0165C19.2356 10.9385 19.1918 10.8327 19.1918 10.7223V10.6879C19.1918 10.5776 19.2356 10.4718 19.3136 10.3938C19.3916 10.3157 19.4975 10.2719 19.6078 10.2719H21.6735ZM1.82371 6.15862L10.4414 1.18317L14.201 3.35377L5.58328 8.32922L1.82371 6.15862ZM10.0035 11.923V21.8755L1.36758 16.8995V6.94692L10.0035 11.923ZM10.4414 11.134L6.49421 8.85511L15.112 3.8797L19.0594 6.15862L10.4414 11.134Z" fill="#ABB0BF" stroke="#ABB0BF" stroke-width="0.2"/>
<path d="M17.5658 15.5039H17.9379C18.0321 15.5039 18.1225 15.4665 18.1892 15.3998C18.2559 15.3331 18.2933 15.2427 18.2933 15.1484C18.2933 15.0542 18.2559 14.9637 18.1892 14.8971C18.1225 14.8304 18.0321 14.793 17.9379 14.793H17.9238V13.8281H18.9043C18.9266 13.8996 18.9717 13.9618 19.0328 14.0051C19.0938 14.0485 19.1674 14.0706 19.2422 14.0682C19.3366 14.0684 19.4273 14.0312 19.4943 13.9647C19.5613 13.8983 19.5992 13.8079 19.5996 13.7135V13.4743C19.5988 13.3795 19.5606 13.2888 19.4934 13.2219C19.4261 13.155 19.3352 13.1174 19.2403 13.1172H17.5658C17.5191 13.1174 17.473 13.1269 17.43 13.1449C17.3871 13.163 17.3481 13.1894 17.3153 13.2226C17.2825 13.2558 17.2566 13.2951 17.239 13.3383C17.2215 13.3815 17.2126 13.4277 17.2129 13.4743V15.1488C17.2126 15.1954 17.2215 15.2415 17.2391 15.2845C17.2568 15.3276 17.2827 15.3668 17.3155 15.3998C17.3483 15.4328 17.3873 15.459 17.4302 15.4768C17.4732 15.4947 17.5193 15.5039 17.5658 15.5039Z" fill="#ABB0BF"/>
<path d="M17.5684 18.7539H19.2441C19.3384 18.7539 19.4288 18.7165 19.4955 18.6498C19.5622 18.5831 19.5996 18.4927 19.5996 18.3984V16.7227C19.5996 16.6284 19.5622 16.538 19.4955 16.4713C19.4288 16.4046 19.3384 16.3672 19.2441 16.3672H17.5684C17.4741 16.3672 17.3837 16.4046 17.317 16.4713C17.2503 16.538 17.2129 16.6284 17.2129 16.7227V18.3984C17.2129 18.4927 17.2503 18.5831 17.317 18.6498C17.3837 18.7165 17.4741 18.7539 17.5684 18.7539ZM17.9238 17.0781H18.8887V18.043H17.9238V17.0781Z" fill="#ABB0BF"/>
<path d="M17.9379 21.293H17.9239V20.3281H18.8851C18.8869 20.4216 18.9253 20.5106 18.9921 20.5761C19.0588 20.6416 19.1485 20.6784 19.242 20.6785C19.3355 20.6786 19.4253 20.642 19.4922 20.5766C19.559 20.5113 19.5976 20.4223 19.5996 20.3288V19.9863C19.5993 19.8902 19.5616 19.798 19.4946 19.7291C19.4275 19.6603 19.3364 19.6201 19.2403 19.6172H17.5658C17.4704 19.6204 17.3801 19.6608 17.3141 19.7298C17.2481 19.7988 17.2118 19.8909 17.2129 19.9863V21.6608C17.2129 21.7067 17.222 21.7522 17.2399 21.7945C17.2577 21.8367 17.2839 21.875 17.3168 21.907C17.3497 21.939 17.3887 21.9641 17.4315 21.9807C17.4742 21.9974 17.5199 22.0052 17.5658 22.0039H17.9379C18.0322 22.0039 18.1226 21.9665 18.1893 21.8998C18.2559 21.8331 18.2934 21.7427 18.2934 21.6484C18.2934 21.5542 18.2559 21.4637 18.1893 21.3971C18.1226 21.3304 18.0322 21.293 17.9379 21.293Z" fill="#ABB0BF"/>
<path d="M20.0583 13.5535L19.0173 14.5945L18.7006 14.2778C18.6676 14.2448 18.6284 14.2186 18.5853 14.2007C18.5421 14.1829 18.4959 14.1737 18.4492 14.1737C18.4026 14.1737 18.3563 14.1829 18.3132 14.2007C18.2701 14.2186 18.2309 14.2448 18.1979 14.2778C18.1649 14.3108 18.1387 14.35 18.1208 14.3931C18.1029 14.4362 18.0937 14.4825 18.0938 14.5292C18.0938 14.5758 18.1029 14.6221 18.1208 14.6652C18.1387 14.7083 18.1649 14.7475 18.1979 14.7805L18.766 15.3486C18.799 15.3816 18.8382 15.4078 18.8813 15.4256C18.9244 15.4435 18.9706 15.4527 19.0173 15.4527C19.064 15.4527 19.1102 15.4435 19.1534 15.4256C19.1965 15.4078 19.2357 15.3816 19.2687 15.3486L20.5612 14.0561C20.6278 13.9894 20.6653 13.899 20.6653 13.8047C20.6653 13.7104 20.6278 13.62 20.5612 13.5533C20.4945 13.4867 20.4041 13.4492 20.3098 13.4492C20.2155 13.4492 20.1251 13.4867 20.0584 13.5533L20.0583 13.5535Z" fill="#ABB0BF"/>
<path d="M20.0583 20.117L19.0173 21.158L18.7006 20.8413C18.6676 20.8083 18.6284 20.7821 18.5853 20.7642C18.5421 20.7463 18.4959 20.7371 18.4492 20.7371C18.4026 20.7371 18.3563 20.7463 18.3132 20.7642C18.2701 20.7821 18.2309 20.8083 18.1979 20.8413C18.1649 20.8743 18.1387 20.9135 18.1208 20.9566C18.1029 20.9997 18.0937 21.0459 18.0938 21.0926C18.0938 21.1393 18.1029 21.1855 18.1208 21.2287C18.1387 21.2718 18.1649 21.311 18.1979 21.344L18.766 21.912C18.799 21.945 18.8382 21.9712 18.8813 21.9891C18.9244 22.007 18.9706 22.0162 19.0173 22.0162C19.064 22.0162 19.1102 22.007 19.1534 21.9891C19.1965 21.9712 19.2357 21.945 19.2687 21.912L20.5612 20.6196C20.6278 20.5529 20.6653 20.4625 20.6653 20.3682C20.6653 20.2739 20.6278 20.1835 20.5612 20.1168C20.4945 20.0501 20.4041 20.0127 20.3098 20.0127C20.2155 20.0127 20.1251 20.0501 20.0584 20.1168L20.0583 20.117Z" fill="#ABB0BF"/>
<path d="M23.7053 13.9805H21.4727C21.3784 13.9805 21.288 14.0179 21.2213 14.0846C21.1546 14.1512 21.1172 14.2417 21.1172 14.3359C21.1172 14.4302 21.1546 14.5206 21.2213 14.5873C21.288 14.654 21.3784 14.6914 21.4727 14.6914H23.7053C23.7996 14.6914 23.89 14.654 23.9567 14.5873C24.0233 14.5206 24.0608 14.4302 24.0608 14.3359C24.0608 14.2417 24.0233 14.1512 23.9567 14.0846C23.89 14.0179 23.7996 13.9805 23.7053 13.9805Z" fill="#ABB0BF"/>
<path d="M23.7053 17.2305H21.4727C21.3784 17.2305 21.288 17.2679 21.2213 17.3346C21.1546 17.4012 21.1172 17.4917 21.1172 17.5859C21.1172 17.6802 21.1546 17.7706 21.2213 17.8373C21.288 17.904 21.3784 17.9414 21.4727 17.9414H23.7053C23.7996 17.9414 23.89 17.904 23.9567 17.8373C24.0233 17.7706 24.0608 17.6802 24.0608 17.5859C24.0608 17.4917 24.0233 17.4012 23.9567 17.3346C23.89 17.2679 23.7996 17.2305 23.7053 17.2305Z" fill="#ABB0BF"/>
<path d="M23.7053 20.4805H21.4727C21.3784 20.4805 21.288 20.5179 21.2213 20.5846C21.1546 20.6512 21.1172 20.7417 21.1172 20.8359C21.1172 20.9302 21.1546 21.0206 21.2213 21.0873C21.288 21.154 21.3784 21.1914 21.4727 21.1914H23.7053C23.7996 21.1914 23.89 21.154 23.9567 21.0873C24.0233 21.0206 24.0608 20.9302 24.0608 20.8359C24.0608 20.7417 24.0233 20.6512 23.9567 20.5846C23.89 20.5179 23.7996 20.4805 23.7053 20.4805Z" fill="#ABB0BF"/>
</svg>
