<svg width="27" height="27" viewBox="0 0 27 27" fill="none" xmlns="http://www.w3.org/2000/svg">
<path d="M18.9004 7.69998C18.9004 8.78778 18.5778 9.85115 17.9735 10.7556C17.3691 11.6601 16.5101 12.365 15.5052 12.7813C14.5002 13.1976 13.3943 13.3065 12.3274 13.0943C11.2605 12.8821 10.2805 12.3583 9.51131 11.5891C8.74212 10.8199 8.21829 9.83987 8.00607 8.77298C7.79386 7.70608 7.90277 6.60022 8.31906 5.59522C8.73534 4.59023 9.44029 3.73125 10.3448 3.1269C11.2492 2.52255 12.3126 2.19998 13.4004 2.19998C14.8591 2.19998 16.258 2.77944 17.2895 3.81089C18.3209 4.84234 18.9004 6.24129 18.9004 7.69998Z" stroke="#ABB0BF" stroke-width="1.5" stroke-linecap="round" stroke-linejoin="round"/>
<path d="M22.8492 24.2C22.8492 19.943 18.6142 16.5 13.4002 16.5C8.18617 16.5 3.95117 19.943 3.95117 24.2" stroke="#ABB0BF" stroke-width="1.5" stroke-linecap="round" stroke-linejoin="round"/>
</svg>
