<svg width="17" height="19" viewBox="0 0 17 19" fill="none" xmlns="http://www.w3.org/2000/svg">
<g id="Icon/Outline/search">
<path id="Mask" fill-rule="evenodd" clip-rule="evenodd" d="M3.54166 8.75762C3.54166 6.38824 5.44779 4.46138 7.79166 4.46138C10.1355 4.46138 12.0417 6.38824 12.0417 8.75762C12.0417 11.127 10.1355 13.0539 7.79166 13.0539C5.44779 13.0539 3.54166 11.127 3.54166 8.75762ZM14.6675 14.6957L12.2627 12.2641C13.0085 11.2945 13.4583 10.0794 13.4583 8.75762C13.4583 5.59916 10.9161 3.0293 7.79167 3.0293C4.66721 3.0293 2.125 5.59916 2.125 8.75762C2.125 11.9161 4.66721 14.4859 7.79167 14.4859C9.09925 14.4859 10.3013 14.0313 11.2604 13.2773L13.6659 15.7082C13.804 15.8478 13.9853 15.918 14.1667 15.918C14.348 15.918 14.5293 15.8478 14.6675 15.7082C14.9444 15.4282 14.9444 14.9757 14.6675 14.6957Z" fill="#5F323B"/>
<mask id="mask0_1_4290" style="mask-type:luminance" maskUnits="userSpaceOnUse" x="2" y="3" width="13" height="13">
<path id="Mask_2" fill-rule="evenodd" clip-rule="evenodd" d="M3.54166 8.75762C3.54166 6.38824 5.44779 4.46138 7.79166 4.46138C10.1355 4.46138 12.0417 6.38824 12.0417 8.75762C12.0417 11.127 10.1355 13.0539 7.79166 13.0539C5.44779 13.0539 3.54166 11.127 3.54166 8.75762ZM14.6675 14.6957L12.2627 12.2641C13.0085 11.2945 13.4583 10.0794 13.4583 8.75762C13.4583 5.59916 10.9161 3.0293 7.79167 3.0293C4.66721 3.0293 2.125 5.59916 2.125 8.75762C2.125 11.9161 4.66721 14.4859 7.79167 14.4859C9.09925 14.4859 10.3013 14.0313 11.2604 13.2773L13.6659 15.7082C13.804 15.8478 13.9853 15.918 14.1667 15.918C14.348 15.918 14.5293 15.8478 14.6675 15.7082C14.9444 15.4282 14.9444 14.9757 14.6675 14.6957Z" fill="white"/>
</mask>
<g mask="url(#mask0_1_4290)">
<g id="&#240;&#159;&#142;&#168; Color">
<rect id="Base" y="0.881226" width="17" height="17.185" fill="#F74C69"/>
</g>
</g>
</g>
</svg>
